#!OML:ASF H:\Martial Arts Walks\Project 1\Capture day 1\Session 1\male.ASF
:FULLY-SPECIFIED
:DEGREES
1815
root 0.439814 14.1862 -14.091 12.0822 30.4206 8.47794
lowerback 10.6071 1.26093 -9.99106
upperback -2.15234 0.305162 -0.219556
thorax -8.37732 0.63833 5.34717
lowerneck 2.32957 -11.9227 -11.6509
upperneck -0.879462 -16.2158 10.6477
head 1.18409 -8.15491 4.69103
rclavicle -2.09221e-014 3.10104e-014
rhumerus 46.4324 -8.83053 -54.6181
rradius 19.9343
rwrist 25.7689
rhand -18.4528 -35.0061
rfingers 7.12502
rthumb 7.83335 -64.841
lclavicle -2.09221e-014 3.10104e-014
lhumerus -71.1931 -18.6696 104.599
lradius 104.489
lwrist 74.3112
lhand -19.5425 67.069
lfingers 7.12502
lthumb 6.7815 263.06
rfemur -69.5182 -21.4516 11.4532
rtibia 68.0528
rfoot -1.12493 3.8694
rtoes -5.46318
lfemur -0.215148 1.85518 -7.68914
ltibia 44.7594
lfoot -15.7649 29.3302
ltoes -23.4123
1816
root 0.440682 14.1797 -14.1444 11.7108 30.572 8.18132
lowerback 10.7941 1.28054 -9.70016
upperback -2.06046 0.358858 -0.164525
thorax -8.38836 0.648602 5.23334
lowerneck 2.43538 -11.9232 -11.6757
upperneck -1.0472 -16.2191 10.701
head 1.12463 -8.15962 4.72299
rclavicle 4.7112e-014 -7.95139e-016
rhumerus 46.405 -8.85369 -54.4075
rradius 20.0155
rwrist 25.5567
rhand -18.449 -35.1463
rfingers 7.12502
rthumb 7.83694 -64.981
lclavicle 4.7112e-014 -7.95139e-016
lhumerus -71.1356 -18.7174 104.653
lradius 104.515
lwrist 74.1221
lhand -19.5104 67.0217
lfingers 7.12502
lthumb 6.81249 263.108
rfemur -69.1753 -21.2409 11.4273
rtibia 67.7663
rfoot -0.832691 3.64411
rtoes -5.61596
lfemur -1.27248 1.46209 -7.41935
ltibia 46.9291
lfoot -15.6009 28.813
ltoes -23.0747
1817
root 0.443221 14.171 -14.2024 11.3258 30.6549 7.91065
lowerback 10.9796 1.31506 -9.45048
upperback -1.96735 0.427518 -0.114971
thorax -8.40021 0.668147 5.13377
lowerneck 2.5355 -11.9127 -11.6982
upperneck -1.18986 -16.2081 10.7376
head 1.07028 -8.15693 4.74945
rclavicle 6.01324e-015 5.1684e-015
rhumerus 46.4101 -8.88295 -54.2642
rradius 20.0745
rwrist 25.3189
rhand -18.4285 -35.2972
rfingers 7.12502
rthumb 7.85679 -65.1312
lclavicle 6.01324e-015 5.1684e-015
lhumerus -71.1072 -18.7566 104.692
lradius 104.569
lwrist 73.9749
lhand -19.4638 66.8515
lfingers 7.12502
lthumb 6.85747 263.28
rfemur -68.8144 -20.97 11.3339
rtibia 67.4491
rfoot -0.538829 3.46527
rtoes -5.82258
lfemur -2.28744 1.08819 -7.20307
ltibia 49.0884
lfoot -15.4773 28.2313
ltoes -22.7033
1818
root 0.447361 14.1606 -14.2651 10.9228 30.668 7.65595
lowerback 11.1611 1.36618 -9.23762
upperback -1.87194 0.514328 -0.0683257
thorax -8.41045 0.69818 5.0481
lowerneck 2.62458 -11.8952 -11.7103
upperneck -1.30329 -16.1879 10.7563
head 1.02293 -8.14923 4.76811
rclavicle 2.6985e-014 -1.19271e-014
rhumerus 46.438 -8.91084 -54.17
rradius 20.129
rwrist 25.0244
rhand -18.3784 -35.4456
rfingers 7.12502
rthumb 7.90517 -65.2778
lclavicle 2.6985e-014 -1.19271e-014
lhumerus -71.1032 -18.8021 104.718
lradius 104.657
lwrist 73.8985
lhand -19.4562 66.6559
lfingers 7.12502
lthumb 6.86476 263.475
rfemur -68.432 -20.632 11.1858
rtibia 67.0942
rfoot -0.240746 3.3261
rtoes -6.06458
lfemur -3.2497 0.757459 -7.02802
ltibia 51.2151
lfoot -15.3978 27.5916
ltoes -22.3458
1819
root 0.452971 14.1491 -14.3324 10.4955 30.6211 7.40603
lowerback 11.3431 1.42933 -9.05128
upperback -1.77458 0.614162 -0.021387
thorax -8.42112 0.735877 4.97488
lowerneck 2.69852 -11.871 -11.7086
upperneck -1.3835 -16.1583 10.7565
head 0.984079 -8.13635 4.77786
rclavicle 9.90445e-014 -9.14409e-015
rhumerus 46.4787 -8.92257 -54.1102
rradius 20.1978
rwrist 24.6475
rhand -18.2884 -35.5934
rfingers 7.12502
rthumb 7.99195 -65.4223
lclavicle 9.90445e-014 -9.14409e-015
lhumerus -71.12 -18.8621 104.734
lradius 104.775
lwrist 73.9086
lhand -19.523 66.4971
lfingers 7.12502
lthumb 6.80029 263.632
rfemur -68.0207 -20.2302 10.9971
rtibia 66.6934
rfoot 0.0706133 3.21986
rtoes -6.34457
lfemur -4.15073 0.471653 -6.87903
ltibia 53.2872
lfoot -15.4033 26.8883
ltoes -22.033
